<?xml version="1.0" standalone="no"?>
<!DOCTYPE svg PUBLIC "-//W3C//DTD SVG 20010904//EN"
 "http://www.w3.org/TR/2001/REC-SVG-20010904/DTD/svg10.dtd">
<svg version="1.0" xmlns="http://www.w3.org/2000/svg"
 width="1920.000000pt" height="1080.000000pt" viewBox="0 0 1920.000000 1080.000000"
 preserveAspectRatio="xMidYMid meet">

<g transform="translate(0.000000,1080.000000) scale(0.100000,-0.100000)"
fill="#000000" stroke="none">
<path d="M10084 5984 c-63 -31 -79 -58 -79 -134 0 -62 3 -72 28 -98 36 -38
101 -57 164 -47 36 5 56 16 85 45 36 35 38 41 38 98 0 50 -4 66 -25 90 -49 59
-144 79 -211 46z"/>
<path d="M5460 5875 c-6 -16 -10 -248 -10 -604 0 -482 2 -580 14 -590 9 -8 55
-11 137 -9 l124 3 6 275 c3 151 9 286 14 300 12 40 52 87 86 104 18 9 55 16
84 16 64 0 107 -20 143 -67 l27 -36 6 -296 c3 -163 6 -297 7 -299 1 -1 62 -1
135 0 l132 3 0 335 0 335 -34 68 c-39 78 -91 129 -168 164 -50 23 -64 25 -156
21 -109 -4 -151 -19 -216 -74 -57 -47 -60 -37 -63 178 l-3 193 -128 3 -127 3
-10 -26z"/>
<path d="M1525 5840 c-127 -29 -216 -92 -266 -189 -19 -36 -23 -61 -23 -140
-1 -83 2 -103 23 -143 47 -92 129 -145 323 -209 187 -61 219 -85 220 -165 1
-41 -3 -51 -31 -76 -28 -25 -39 -28 -97 -28 -77 0 -112 21 -140 81 l-17 40
-141 -3 -141 -3 3 -45 c6 -85 82 -192 168 -237 87 -45 144 -57 269 -57 100 0
130 4 181 23 154 57 244 180 244 333 0 165 -93 252 -365 343 -109 37 -140 52
-174 85 -44 44 -44 104 -1 145 26 25 39 29 85 29 64 0 101 -22 128 -77 l17
-37 145 0 145 0 0 38 c0 63 -53 156 -118 207 -82 64 -154 87 -287 91 -60 2
-128 -1 -150 -6z"/>
<path d="M12312 5828 c-16 -16 -16 -180 0 -196 8 -8 53 -12 136 -12 68 0 132
-5 143 -10 18 -10 19 -26 19 -464 0 -375 2 -456 14 -465 9 -8 55 -11 137 -9
l124 3 3 454 c2 403 4 457 18 473 14 15 37 18 153 20 l136 3 3 99 c2 73 -1
102 -10 108 -22 13 -862 10 -876 -4z"/>
<path d="M7890 5744 c-105 -27 -180 -72 -266 -158 -96 -96 -146 -189 -170
-317 -15 -78 -15 -83 4 -108 42 -57 96 -31 107 52 17 121 65 215 151 298 103
97 209 134 364 127 86 -4 107 -9 172 -40 73 -35 138 -81 138 -99 0 -5 -22 -9
-49 -9 -78 0 -108 -51 -58 -98 22 -21 33 -22 180 -22 l157 0 -2 172 c-3 171
-3 173 -27 184 -26 13 -69 3 -83 -19 -4 -7 -8 -41 -8 -75 l0 -64 -49 44 c-61
55 -168 112 -247 133 -73 19 -240 19 -314 -1z"/>
<path d="M4755 5601 c-189 -23 -344 -185 -367 -384 -28 -257 76 -454 283 -530
60 -23 188 -32 266 -19 137 23 258 114 314 237 16 36 29 71 29 79 0 20 -69 29
-185 24 l-94 -4 -38 -42 c-51 -57 -110 -76 -171 -55 -51 17 -74 38 -102 92
-26 53 -29 214 -4 264 64 127 192 144 286 38 l37 -41 131 0 c100 0 132 3 136
13 9 24 -37 127 -80 180 -97 120 -249 170 -441 148z"/>
<path d="M11669 5600 c-118 -14 -249 -98 -308 -196 -47 -79 -61 -142 -61 -269
0 -131 15 -193 67 -277 135 -219 508 -266 702 -88 50 46 85 95 107 148 14 37
15 45 3 53 -8 5 -70 9 -139 9 l-126 0 -47 -45 c-47 -44 -50 -45 -112 -45 -46
0 -73 6 -97 20 -47 28 -80 81 -76 122 l3 33 304 3 c204 1 309 6 318 13 26 22
6 206 -32 279 -93 183 -271 268 -506 240z m186 -240 c53 -33 92 -113 63 -131
-15 -10 -298 -12 -322 -3 -44 17 12 114 84 146 8 4 44 7 79 7 47 1 72 -4 96
-19z"/>
<path d="M13675 5600 c-157 -19 -290 -128 -351 -285 -27 -72 -27 -288 0 -360
68 -175 205 -278 390 -291 159 -12 293 34 384 130 59 62 111 164 90 177 -7 5
-73 9 -145 9 -130 0 -133 -1 -149 -24 -39 -61 -155 -87 -224 -51 -43 22 -80
76 -83 121 l-2 39 315 5 315 5 3 65 c12 240 -141 430 -370 460 -81 10 -87 10
-173 0z m174 -235 c65 -33 107 -123 65 -139 -9 -3 -83 -6 -164 -6 -155 0 -168
3 -161 44 5 31 31 66 70 92 28 19 48 24 99 24 36 0 75 -6 91 -15z"/>
<path d="M14650 5600 c-133 -19 -246 -121 -306 -275 -28 -73 -28 -308 1 -380
47 -120 115 -199 216 -251 49 -26 63 -28 159 -28 120 1 171 18 236 79 20 20
40 33 43 30 3 -3 8 -27 11 -53 l5 -47 135 0 135 0 3 449 c1 323 -1 453 -9 462
-8 10 -40 14 -118 14 -142 0 -151 -3 -151 -49 0 -61 -13 -69 -52 -31 -66 67
-184 97 -308 80z m205 -243 c57 -17 93 -44 123 -91 24 -37 27 -51 27 -131 0
-81 -3 -94 -27 -131 -88 -137 -277 -131 -350 9 -17 33 -22 59 -22 127 0 74 3
90 26 126 29 45 66 73 118 90 47 16 58 16 105 1z"/>
<path d="M17535 5600 c-113 -16 -211 -78 -255 -162 -32 -62 -30 -182 4 -237
44 -69 113 -108 256 -146 195 -51 210 -60 210 -115 0 -36 -4 -41 -40 -60 -47
-24 -75 -25 -126 -4 -44 18 -68 41 -78 72 -7 21 -13 22 -142 22 l-134 0 0 -30
c0 -41 32 -102 81 -155 149 -161 515 -166 648 -8 83 100 80 241 -6 329 -23 24
-59 50 -80 60 -54 23 -183 64 -202 64 -33 0 -116 39 -138 64 -30 35 -29 42 6
77 24 24 38 29 78 29 57 0 106 -27 131 -70 l17 -30 118 0 c127 0 122 -2 117
60 -4 50 -58 131 -116 175 -73 55 -218 82 -349 65z"/>
<path d="M2198 5593 c-10 -2 -18 -6 -18 -8 0 -4 46 -118 65 -160 15 -32 16
-36 95 -225 49 -119 71 -170 90 -215 106 -243 125 -305 101 -330 -5 -6 -20
-37 -34 -70 -14 -33 -41 -94 -60 -135 -88 -193 -91 -201 -76 -211 8 -5 68 -9
134 -9 93 0 126 4 143 16 12 8 22 20 22 26 0 5 6 24 14 41 8 18 67 156 131
307 64 151 120 284 125 295 5 11 18 43 30 70 12 28 25 59 30 70 5 11 17 40 28
65 10 25 59 138 107 252 49 115 85 211 81 215 -9 10 -239 17 -271 9 -12 -3
-25 -14 -28 -23 -7 -26 -63 -179 -87 -243 -12 -30 -26 -71 -32 -90 -5 -19 -13
-39 -18 -45 -4 -5 -10 -22 -14 -37 -3 -14 -15 -47 -26 -73 -16 -37 -23 -45
-33 -36 -8 6 -40 82 -71 168 -32 87 -62 167 -67 178 -5 11 -13 34 -19 50 -48
158 -45 155 -199 154 -69 -1 -134 -3 -143 -6z"/>
<path d="M3342 5592 c-10 -7 -12 -106 -10 -463 l3 -454 130 0 130 0 6 275 c3
151 9 286 14 300 24 76 91 121 179 119 63 -1 101 -22 140 -77 l30 -42 4 -290
5 -291 131 3 131 3 0 335 0 335 -31 65 c-33 70 -86 125 -156 161 -33 18 -65
24 -141 27 -113 5 -159 -8 -234 -65 -54 -42 -73 -38 -73 16 0 26 -5 41 -16 45
-23 9 -227 7 -242 -2z"/>
<path d="M6582 5592 c-10 -7 -12 -106 -10 -463 l3 -454 130 0 130 0 7 240 c3
132 9 255 13 273 16 73 98 122 206 122 30 0 60 4 67 8 9 7 12 42 10 143 l-3
134 -34 3 c-48 5 -114 -23 -178 -75 -67 -54 -83 -51 -83 16 0 35 -4 51 -16 55
-23 9 -227 7 -242 -2z"/>
<path d="M8927 5588 c-16 -12 -17 -49 -15 -463 l3 -450 135 0 135 0 5 285 c3
179 10 294 17 310 12 28 57 72 90 89 32 16 119 13 156 -5 37 -19 47 -29 73
-69 17 -27 19 -54 24 -320 l5 -290 135 0 135 0 0 320 c0 359 -4 385 -73 477
-73 97 -132 123 -277 123 -120 0 -155 -10 -227 -67 -44 -34 -58 -30 -58 17 0
24 -6 38 -19 45 -28 15 -223 13 -244 -2z"/>
<path d="M10038 5589 c-17 -9 -18 -42 -18 -459 l0 -450 23 -5 c12 -3 74 -4
137 -3 l115 3 3 450 c2 414 1 451 -15 463 -21 15 -220 16 -245 1z"/>
<path d="M10482 5592 c-9 -6 -12 -36 -10 -113 l3 -104 174 -5 c108 -3 176 -9
178 -15 4 -13 -129 -182 -334 -424 -20 -24 -22 -37 -23 -144 l0 -117 353 2
352 3 0 110 0 110 -183 3 c-150 2 -184 5 -188 17 -5 12 37 73 91 131 15 16 90
105 188 222 l87 105 0 107 c0 103 -1 108 -22 114 -35 9 -651 7 -666 -2z"/>
<path d="M15528 5589 c-17 -9 -18 -42 -18 -453 0 -367 2 -446 14 -455 9 -8 55
-11 137 -9 l124 3 6 275 c3 151 10 288 14 303 21 79 131 129 222 102 56 -18
72 -29 99 -70 17 -26 19 -55 24 -320 l5 -290 135 0 135 0 5 280 c4 236 8 286
22 317 57 121 259 121 322 0 14 -26 16 -71 16 -301 0 -148 3 -276 6 -285 5
-14 27 -16 140 -16 l134 0 0 311 c0 259 -3 320 -16 367 -30 103 -87 171 -183
219 -50 26 -64 28 -166 28 -103 0 -116 -2 -167 -28 -31 -16 -76 -48 -100 -73
-23 -24 -47 -44 -52 -44 -4 0 -32 24 -60 53 -73 73 -138 97 -259 97 -98 0
-148 -16 -214 -66 -45 -34 -63 -32 -63 9 0 18 -5 38 -12 45 -15 15 -225 16
-250 1z"/>
<path d="M8548 5173 c-8 -10 -20 -49 -26 -88 -31 -191 -186 -356 -373 -396
-74 -16 -202 -6 -271 20 -32 12 -86 43 -120 69 l-63 47 58 5 c64 6 77 17 77
67 0 22 -6 36 -19 43 -11 6 -89 10 -180 10 l-161 0 0 -158 c0 -177 7 -202 60
-202 46 0 60 23 60 96 0 35 2 64 5 64 3 0 33 -23 67 -51 118 -95 241 -139 388
-139 168 0 292 52 416 175 93 92 144 183 169 300 19 90 19 120 -1 139 -21 21
-67 20 -86 -1z"/>
</g>
</svg>
